<?xml version="1.0" standalone="no"?>
<!DOCTYPE svg PUBLIC "-//W3C//DTD SVG 1.0//EN" "http://www.w3.org/TR/2001/REC-SVG-20010904/DTD/svg10.dtd">
<svg xmlns="http://www.w3.org/2000/svg" xmlns:xlink="http://www.w3.org/1999/xlink" id="body_1" width="307" height="230">

<g transform="matrix(4.791667 0 0 4.791667 38.499996 -0)">
    <path d="M46.5 19C 46.102158 18.999939 45.720592 19.157953 45.439274 19.439272C 45.157955 19.720589 44.99994 20.102156 45 20.5L45 20.5L45 22L40.87225 22C 40.50708 18.889872 39.284966 15.942365 37.34225 13.48633L37.34225 13.48633L40.263462 10.5649395L41.43928 11.56055C 41.81812 11.9398 42.370552 12.08805 42.888367 11.949424C 43.406178 11.810799 43.81065 11.406372 43.949337 10.888575C 44.08802 10.370777 43.939835 9.818329 43.560623 9.439449L43.560623 9.439449L38.560715 4.4394493C 37.97499 3.8536768 37.025303 3.853639 36.43953 4.4393644C 35.853756 5.02509 35.85372 5.9747767 36.439445 6.5605493L36.439445 6.5605493L37.435097 7.736329L34.513706 10.657709C 32.05758 8.715161 29.110094 7.4931335 26 7.12793L26 7.12793L26 3L27.5 3C 28.328426 3 29 2.328427 29 1.4999999C 29 0.67157274 28.328426 0 27.5 0L27.5 0L20.5 0C 19.671574 0 19 0.6715729 19 1.5000001C 19 2.3284273 19.671574 3 20.5 3L20.5 3L22 3L22 7.12793C 18.889923 7.493141 15.942442 8.715171 13.48633 10.65771L13.48633 10.65771L10.56494 7.73633L11.560591 6.5605497C 12.146317 5.974777 12.146278 5.02509 11.560506 4.439365C 10.974733 3.8536391 10.025046 3.8536773 9.439321 4.43945L9.439321 4.43945L4.5545707 9.439449C 3.9713793 10.025671 3.972633 10.973299 4.557373 11.557976C 5.142113 12.1426525 6.0897417 12.143804 6.6759005 11.560549L6.6759005 11.560549L7.7365704 10.564939L10.657781 13.486328C 8.715055 15.94236 7.4929276 18.88987 7.12775 22L7.12775 22L3 22L3 20.5C 3 19.671574 2.328427 19 1.4999999 19C 0.67157274 19 0 19.671574 0 20.5L0 20.5L0 27.5C 0 28.328426 0.6715729 29 1.5000001 29C 2.3284273 29 3 28.328426 3 27.5L3 27.5L3 26L7.12775 26C 7.492918 29.110126 8.715038 32.05764 10.65775 34.51367L10.65775 34.51367L7.73657 37.43506L6.56075 36.43945C 5.9748735 35.854538 5.02589 35.854904 4.4404626 36.440266C 3.8550348 37.025627 3.8545642 37.97461 4.43941 38.56055L4.43941 38.56055L9.43932 43.56055C 9.818217 43.93948 10.37049 44.087482 10.888101 43.94881C 11.405711 43.810143 11.810023 43.40586 11.948736 42.88826C 12.087448 42.370663 11.939487 41.81838 11.56059 41.43945L11.56059 41.43945L10.5649395 40.263668L13.48621 37.34229C 15.942356 39.28485 18.88988 40.50688 22 40.87207L22 40.87207L22 45L20.5 45C 19.671574 45 19 45.671574 19 46.5C 19 47.328426 19.671574 48 20.5 48L20.5 48L27.5 48C 28.328426 48 29 47.328426 29 46.5C 29 45.671574 28.328426 45 27.5 45L27.5 45L26 45L26 40.87207C 29.11012 40.50688 32.057644 39.28485 34.51379 37.34229L34.51379 37.34229L37.43506 40.263668L36.439407 41.43945C 35.85368 42.025223 35.853718 42.974907 36.43949 43.560635C 37.025265 44.146362 37.97495 44.146324 38.560677 43.56055L38.560677 43.56055L43.560585 38.56055C 43.939484 38.18161 44.08744 37.629314 43.948715 37.111706C 43.80999 36.5941 43.405666 36.189823 42.888042 36.051155C 42.370422 35.91249 41.818142 36.06051 41.439243 36.43945L41.439243 36.43945L40.263424 37.43506L37.342213 34.513668C 39.28494 32.05764 40.507065 29.11013 40.87225 26L40.87225 26L45 26L45 27.5C 45 28.328426 45.671574 29 46.5 29C 47.328426 29 48 28.328426 48 27.5L48 27.5L48 20.5C 48.00006 20.102156 47.842045 19.720589 47.560726 19.439272C 47.279408 19.157953 46.897842 18.999939 46.5 19zM18.5 20C 17.084383 20 15.808155 19.147253 15.266422 17.839392C 14.724689 16.531532 15.024134 15.026119 16.025126 14.025126C 17.02612 13.024134 18.531532 12.724689 19.839392 13.266422C 21.147253 13.808155 22 15.084382 22 16.5C 22.000017 17.428265 21.631273 18.318512 20.974892 18.974892C 20.318512 19.631273 19.428265 20.000017 18.5 20zM30 33C 29.191076 33 28.461803 32.512714 28.15224 31.765368C 27.842678 31.018019 28.01379 30.157782 28.585787 29.585787C 29.157782 29.01379 30.018019 28.842678 30.765368 29.15224C 31.512716 29.461803 32 30.191076 32 31C 31.999966 32.104553 31.104555 32.999966 30 33z" stroke="none" fill="#418FDE" fill-rule="nonzero" />
</g>
</svg>